<svg width="40" height="40" viewBox="0 0 40 40" fill="none" xmlns="http://www.w3.org/2000/svg">
<rect x="0.75" y="0.75" width="38.5" height="38.5" rx="19.25" fill="white"/>
<g clip-path="url(#clip0_14_173)">
<path d="M16.4999 23C20.0905 23 22.9999 20.5375 22.9999 17.5C22.9999 14.4625 20.0905 12 16.4999 12C12.9092 12 9.99985 14.4625 9.99985 17.5C9.99985 18.7063 10.4592 19.8219 11.2374 20.7312C11.128 21.025 10.9655 21.2844 10.7936 21.5031C10.6436 21.6969 10.4905 21.8469 10.378 21.95C10.3217 22 10.2749 22.0406 10.2436 22.0656C10.228 22.0781 10.2155 22.0875 10.2092 22.0906L10.203 22.0969C10.0311 22.225 9.9561 22.45 10.0249 22.6531C10.0936 22.8562 10.2842 23 10.4999 23C11.1811 23 11.8686 22.825 12.4405 22.6094C12.728 22.5 12.9967 22.3781 13.2311 22.2531C14.1905 22.7281 15.3061 23 16.4999 23ZM23.9999 17.5C23.9999 21.0094 20.903 23.6531 17.2342 23.9688C17.9936 26.2937 20.5124 28 23.4999 28C24.6936 28 25.8092 27.7281 26.7717 27.2531C27.0061 27.3781 27.2717 27.5 27.5592 27.6094C28.1311 27.825 28.8186 28 29.4999 28C29.7155 28 29.9092 27.8594 29.9749 27.6531C30.0405 27.4469 29.9686 27.2219 29.7936 27.0938L29.7874 27.0875C29.7811 27.0812 29.7686 27.075 29.753 27.0625C29.7217 27.0375 29.6749 27 29.6186 26.9469C29.5061 26.8438 29.353 26.6938 29.203 26.5C29.0311 26.2812 28.8686 26.0187 28.7592 25.7281C29.5374 24.8219 29.9967 23.7063 29.9967 22.4969C29.9967 19.5969 27.3436 17.2188 23.978 17.0125C23.9905 17.1719 23.9967 17.3344 23.9967 17.4969L23.9999 17.5Z" fill="#121212"/>
</g>
<rect x="0.75" y="0.75" width="38.5" height="38.5" rx="19.25" stroke="#F2F2F2" stroke-width="1.5"/>
<defs>
<clipPath id="clip0_14_173">
<rect width="20" height="16" fill="white" transform="translate(10 12)"/>
</clipPath>
</defs>
</svg>
