<svg width="12" height="12" viewBox="0 0 12 12" fill="none" xmlns="http://www.w3.org/2000/svg">
<path d="M2.6064 11.0912C2.38123 11.3164 2.07584 11.4429 1.7574 11.4429C1.43896 11.4429 1.13357 11.3164 0.908399 11.0912C0.683231 10.866 0.556732 10.5607 0.556732 10.2422C0.556732 10.0845 0.587788 9.92841 0.648128 9.78274C0.708467 9.63707 0.796907 9.50471 0.908399 9.39322L9.3936 0.909216C9.50501 0.797724 9.6373 0.709268 9.7829 0.648898C9.92849 0.588529 10.0846 0.557429 10.2422 0.557373C10.3998 0.557317 10.5559 0.588308 10.7015 0.648574C10.8472 0.70884 10.9795 0.797203 11.091 0.908616C11.2025 1.02003 11.2909 1.15231 11.3513 1.29791C11.4117 1.44351 11.4428 1.59957 11.4428 1.75719C11.4429 1.91481 11.4119 2.0709 11.3516 2.21654C11.2914 2.36218 11.203 2.49452 11.0916 2.60602L2.6064 11.09V11.0912Z" fill="#666666"/>
<path d="M0.908399 2.60631C0.683231 2.38114 0.556732 2.07574 0.556732 1.75731C0.556732 1.43887 0.683231 1.13348 0.908399 0.908308C1.13357 0.683139 1.43896 0.556641 1.7574 0.556641C2.07584 0.556641 2.38123 0.683139 2.6064 0.908308L11.0904 9.39351C11.2019 9.50492 11.2903 9.6372 11.3507 9.7828C11.4111 9.9284 11.4422 10.0845 11.4422 10.2421C11.4423 10.3997 11.4113 10.5558 11.351 10.7014C11.2908 10.8471 11.2024 10.9794 11.091 11.0909C10.9796 11.2024 10.8473 11.2909 10.7017 11.3512C10.5561 11.4116 10.4 11.4427 10.2424 11.4428C10.0848 11.4428 9.92872 11.4118 9.78308 11.3516C9.63744 11.2913 9.50509 11.2029 9.3936 11.0915L0.908399 2.60631Z" fill="#666666"/>
</svg>
