<svg width="20" height="14" viewBox="0 0 20 14" fill="none" xmlns="http://www.w3.org/2000/svg">
<path d="M12.5 8.66668C10.275 8.66668 5.83333 9.77501 5.83333 12V13.6667H19.1667V12C19.1667 9.77501 14.725 8.66668 12.5 8.66668ZM5 5.33334V2.83334H3.33333V5.33334H0.833328V7.00001H3.33333V9.50001H5V7.00001H7.5V5.33334M12.5 7.00001C13.3841 7.00001 14.2319 6.64882 14.857 6.0237C15.4821 5.39858 15.8333 4.55073 15.8333 3.66668C15.8333 2.78262 15.4821 1.93478 14.857 1.30965C14.2319 0.684533 13.3841 0.333344 12.5 0.333344C11.6159 0.333344 10.7681 0.684533 10.143 1.30965C9.51785 1.93478 9.16666 2.78262 9.16666 3.66668C9.16666 4.55073 9.51785 5.39858 10.143 6.0237C10.7681 6.64882 11.6159 7.00001 12.5 7.00001Z" fill="#121212"/>
</svg>
