<svg width="258" height="55" viewBox="0 0 258 55" fill="none" xmlns="http://www.w3.org/2000/svg">
<path d="M257.2 18.0875C257.2 19.1142 257.134 20.0972 257.025 21.0146L257.003 20.9928C257.003 20.9273 257.025 20.8617 257.025 20.7962L255.125 19.704L246.933 14.9855L238.807 10.2889L237.802 9.72092L236.753 9.10926L233.739 7.5146L232.69 6.96848L227.906 9.8083L226.093 10.9005L226.071 10.9224L220.261 14.2646L216.35 16.5146V14.352H211.719V19.2015L211.239 19.4855L209.906 20.2501C209.906 20.3156 209.928 20.3811 209.928 20.4467L209.906 20.4685C209.819 19.704 209.797 18.9176 209.797 18.1093C209.797 17.6506 209.819 17.1918 209.841 16.7549C209.841 16.6894 209.841 16.6457 209.862 16.5802C210.19 11.5777 212.134 7.86411 215.717 5.4175C219.649 2.7306 225.591 1.39807 233.498 1.39807C236.316 1.39807 238.872 1.57283 241.188 1.92234C243.416 2.25001 245.426 2.75244 247.195 3.40778C248.724 3.97575 250.057 4.65294 251.236 5.43935C254.841 7.88596 256.785 11.5996 257.113 16.602C257.113 16.6675 257.113 16.7112 257.134 16.7768C257.178 17.17 257.2 17.6287 257.2 18.0875Z" fill="black"/>
<path d="M37.7259 18.1093C38.6433 17.6506 39.4734 16.9734 40.1725 16.0996C41.1555 14.8763 41.6579 13.2816 41.6579 11.3593C41.6579 10.0049 41.4395 8.75977 41.0244 7.602C40.6094 6.44422 39.8885 5.46121 38.8836 4.63111C37.8788 3.80101 36.5244 3.12382 34.8424 2.64324C33.1385 2.16265 31.0195 1.92236 28.4637 1.92236H0V34.3181H28.4855C31.0414 34.3181 33.1603 34.0778 34.8642 33.5972C36.5681 33.1167 37.9006 32.4613 38.9055 31.6094C39.9103 30.7793 40.6094 29.7744 41.0463 28.6385C41.4613 27.4807 41.6798 26.2356 41.6798 24.8812C41.6798 22.937 41.1773 21.3642 40.1943 20.1409C39.4734 19.2452 38.6652 18.5681 37.7259 18.1093ZM30.8885 25.4055C30.4079 25.7987 29.6215 25.9953 28.5074 25.9953H10.0486V21.5389H28.5074C29.5996 21.5389 30.4079 21.7355 30.8885 22.1069C31.369 22.4783 31.6093 23.0244 31.6093 23.7234C31.6312 24.4443 31.3909 25.0123 30.8885 25.4055ZM30.8885 14.1336C30.4079 14.5049 29.6215 14.6797 28.5074 14.6797H10.0486V10.2234H28.5074C29.5996 10.2234 30.4079 10.42 30.8885 10.8132C31.369 11.2064 31.6093 11.7743 31.6093 12.5171C31.6312 13.2379 31.3909 13.7622 30.8885 14.1336Z" fill="black"/>
<path d="M85.4785 13.9588C86.1775 15.2258 86.811 16.318 87.3353 17.2792C87.8595 18.2404 88.3401 19.0705 88.7333 19.8132C89.1265 20.5559 89.4979 21.2331 89.8037 21.8447C90.1096 22.4564 90.4154 23.0462 90.6994 23.636C90.9615 23.0462 91.2455 22.4564 91.5513 21.8666C91.8571 21.2768 92.2066 20.5996 92.6217 19.835C93.0149 19.0705 93.4955 18.2185 94.0198 17.301C94.544 16.3617 95.1775 15.2695 95.8766 14.0025L101.054 4.80584C101.644 3.77914 102.364 2.94903 103.26 2.31554C104.156 1.68204 105.248 1.37622 106.58 1.37622C107.847 1.37622 108.983 1.74758 109.988 2.46845C111.015 3.18933 111.736 4.32525 112.195 5.83254L120.408 34.3181H110.425L107.367 23.0244C106.843 21.1894 106.406 19.5729 106.056 18.1748C105.707 16.7768 105.401 15.4224 105.139 14.1117C104.593 15.2476 103.981 16.4928 103.304 17.869C102.627 19.2452 101.731 20.9709 100.639 23.068L96.2698 31.2161C95.8547 32.0244 95.4178 32.6579 94.9809 33.1385C94.544 33.5972 94.1071 33.9686 93.6484 34.2307C93.1897 34.4928 92.7091 34.6676 92.1848 34.7331C91.6605 34.8205 91.0926 34.8642 90.4809 34.8642C89.8693 34.8642 89.3013 34.8205 88.777 34.7331C88.2528 34.6458 87.7722 34.4928 87.3134 34.2307C86.8547 33.9686 86.4178 33.6191 85.9809 33.1385C85.544 32.6797 85.1071 32.0244 84.6921 31.2161L80.3231 23.0244C79.7333 21.9321 79.2309 20.9491 78.7721 20.0753C78.3134 19.2015 77.8983 18.4151 77.527 17.7161C77.1556 17.017 76.828 16.3836 76.5658 15.7937C76.2818 15.2039 76.0197 14.6578 75.7576 14.0899C75.4954 15.3787 75.1896 16.7331 74.8401 18.1311C74.4906 19.5292 74.0755 21.1676 73.5731 23.0025L70.5148 34.2962H60.6847L69.0731 5.8107C69.5318 4.30341 70.2745 3.16748 71.3012 2.44661C72.3279 1.72573 73.4857 1.35437 74.7309 1.35437C76.0197 1.35437 77.1119 1.6602 78.0076 2.27185C78.9032 2.8835 79.6241 3.73545 80.2139 4.784L85.4785 13.9588Z" fill="black"/>
<path d="M56.8619 34.4929H46.8351V10.2452H56.8619V34.4929Z" fill="black"/>
<path d="M124.013 0.0218394L123.969 0.0873776V0L124.013 0.0218394Z" fill="#5B8E31"/>
<path d="M124.013 6.2257L123.969 6.29124V6.20386L124.013 6.2257Z" fill="#5B8E31"/>
<path d="M124.013 9.1748L123.969 9.21849V9.15295L124.013 9.1748Z" fill="#5B8E31"/>
<path d="M56.8619 1.90051H46.8351V9.78647H56.8619V1.90051Z" fill="#FDD247"/>
<path d="M162.001 25.5802L155.425 33.9686H123.641V1.33252H161.891L155.272 9.83013H133.908V13.7403H160.078L154.202 21.1457H133.908V25.5802H162.001Z" fill="black"/>
<path d="M207.503 25.5802L200.928 33.9686H184.348C181.486 33.9686 178.843 33.5535 176.396 32.7016C173.972 31.8496 171.853 30.6919 170.105 29.2064C168.336 27.721 166.959 25.9734 165.954 23.9418C164.95 21.9103 164.447 19.7039 164.447 17.3229C164.447 14.9418 164.95 12.7792 165.954 10.8131C166.959 8.84712 168.336 7.16507 170.105 5.74516C171.874 4.32525 173.972 3.23301 176.396 2.46845C178.821 1.70388 181.486 1.33252 184.348 1.33252H207.503L200.928 9.83013H184.348C182.972 9.83013 181.683 10.0267 180.503 10.4199C179.323 10.8131 178.297 11.3593 177.445 12.0583C176.593 12.7573 175.916 13.5874 175.413 14.5704C174.911 15.5534 174.671 16.6238 174.671 17.7816C174.671 18.9612 174.911 20.0098 175.391 20.9709C175.872 21.9321 176.549 22.7622 177.423 23.4394C178.297 24.1166 179.323 24.6409 180.503 25.0341C181.683 25.4054 182.972 25.602 184.348 25.602H207.503V25.5802Z" fill="black"/>
<path d="M209.819 16.5802C209.841 16.6239 209.841 16.6676 209.862 16.7331C209.862 16.6676 209.862 16.6239 209.884 16.5583L209.819 16.5802Z" fill="url(#paint0_linear_15_230)"/>
<path d="M257.2 16.5802L257.134 16.5583C257.134 16.6239 257.134 16.6676 257.156 16.7331C257.178 16.6894 257.178 16.6239 257.2 16.5802Z" fill="url(#paint1_linear_15_230)"/>
<path d="M255.125 19.9224L246.933 15.2039L238.807 10.5073L237.802 9.93933L236.753 9.32767L233.739 7.73301L232.69 7.18689L227.906 10.0267L226.093 11.1189L226.071 11.1408L220.261 14.483L216.176 16.8423V14.5267H211.872V19.3326L211.239 19.7039L209.906 20.4685C209.906 20.534 209.928 20.5996 209.928 20.6651C210.19 23.1117 210.889 25.2088 211.981 27.0001C212.921 28.5292 214.144 29.7962 215.673 30.8447C219.605 33.5316 225.525 34.8642 233.477 34.8642C241.384 34.8642 247.326 33.5316 251.258 30.8447C252.634 29.9054 253.792 28.7695 254.688 27.437C255.867 25.6894 256.61 23.636 256.96 21.2331C256.96 21.1675 256.982 21.102 256.982 21.0365L255.125 19.9224ZM244.137 24.8593C243.045 25.4709 241.647 25.886 239.899 26.1044C239.637 26.1263 239.353 26.17 239.047 26.1918C237.474 26.3447 235.617 26.4103 233.498 26.4103C231.248 26.4103 229.282 26.3229 227.644 26.1481C227.469 26.1263 227.273 26.1044 227.098 26.0826C225.35 25.8641 223.93 25.4491 222.86 24.8374C221.79 24.2258 221.003 23.3738 220.501 22.3034C220.479 22.2379 220.435 22.1724 220.413 22.085L232.952 14.8544L246.321 22.5874C245.884 23.5486 245.142 24.3132 244.137 24.8593Z" fill="#FDD247"/>
<path d="M237.081 46.7695L253.683 47.7525L237.081 48.7356V46.7695Z" fill="black"/>
<path d="M237.081 50.9856L250.035 51.9686L237.081 52.9516V50.9856Z" fill="black"/>
<path d="M20.0972 46.7695L3.49524 47.7525L20.0972 48.7356V46.7695Z" fill="black"/>
<path d="M20.0973 50.9856L7.16522 51.9686L20.0973 52.9516V50.9856Z" fill="black"/>
<path d="M27.8956 54.5026H24.5097L25.7985 45.2186H29.1845C30.5389 45.2186 31.5 46.005 31.3034 47.4686C31.1505 48.4516 30.801 49.107 29.6651 49.5657C31.1287 49.9808 31.2597 51.0293 31.1068 52.0123C30.8228 53.9347 29.5122 54.5026 27.8956 54.5026ZM27.9612 54.1968C29.4466 54.2187 30.5825 53.6288 30.801 52.0123C31.0413 50.3958 30.1457 49.7405 28.5947 49.7405H25.5364L24.9029 54.175H27.9612V54.1968ZM28.6165 49.4347C29.8398 49.4347 30.801 48.823 30.9976 47.4905C31.1724 46.2016 30.3422 45.5244 29.1626 45.5244H26.1044L25.5582 49.4347H28.6165Z" fill="black"/>
<path d="M27.8957 54.6118H24.3787L25.7113 45.1094H29.2064C29.971 45.1094 30.6263 45.3497 31.0195 45.8084C31.3909 46.2235 31.522 46.8133 31.4346 47.4904C31.3035 48.3642 30.9977 49.0633 29.9928 49.5657C31.0414 49.9589 31.4346 50.789 31.238 52.056C30.954 53.7599 29.8836 54.6118 27.8957 54.6118ZM24.6409 54.3934H27.8957C29.7744 54.3934 30.7574 53.6288 31.0195 52.0123C31.2161 50.7453 30.7792 50.0026 29.6652 49.6749L29.3593 49.5875L29.6433 49.4783C30.7792 49.0196 31.0851 48.3642 31.2161 47.4686C31.3035 46.857 31.1724 46.3327 30.8666 45.9613C30.5171 45.5463 29.9273 45.3278 29.2283 45.3278H25.9297L24.6409 54.3934ZM28.0486 54.306C28.0268 54.306 27.9831 54.306 27.9613 54.306H24.7719L25.4273 49.6531H28.5948C29.4904 49.6531 30.1676 49.8715 30.5608 50.3084C30.9103 50.7016 31.0414 51.2914 30.9321 52.056C30.6919 53.5196 29.7088 54.306 28.0486 54.306ZM25.0122 54.0876H27.9613C29.5778 54.1094 30.4952 53.4104 30.6919 52.0123C30.8011 51.3351 30.6919 50.8108 30.386 50.4395C30.0584 50.0463 29.4685 49.8497 28.6384 49.8497C28.6166 49.8497 28.6166 49.8497 28.5948 49.8497H25.602L25.0122 54.0876ZM28.6166 49.5439H25.4273L26.0171 45.4152H29.1846C29.8618 45.4152 30.4297 45.6337 30.7792 46.0269C31.1069 46.3982 31.2161 46.9006 31.1287 47.5123C30.9321 48.8011 30.0147 49.5439 28.6166 49.5439ZM25.6894 49.3254H28.6384C29.9054 49.3254 30.7355 48.6482 30.9103 47.4686C30.9758 46.9443 30.8885 46.4856 30.6045 46.1579C30.2986 45.8084 29.7962 45.6118 29.1846 45.6118H26.2137L25.6894 49.3254Z" fill="black"/>
<path d="M33.0729 54.5026H32.7452L34.0341 45.2186H34.3617L33.0729 54.5026Z" fill="black"/>
<path d="M33.1603 54.6118H32.6142L33.9467 45.1094H34.4928L33.1603 54.6118ZM32.8763 54.3934H32.9856L34.2526 45.3278H34.1215L32.8763 54.3934Z" fill="black"/>
<path d="M37.1798 45.5463L37.0706 45.5681L35.8254 54.5026H35.4977L36.7866 45.2186H37.4856L39.7356 52.7332L44.1046 45.2186H44.8036L43.5148 54.5026H43.1871L44.4541 45.4589H44.3449L39.9322 53.039H39.5172L37.1798 45.5463Z" fill="black"/>
<path d="M43.6021 54.6118H43.056L44.3011 45.721L39.9759 53.1482H39.4079L37.1579 45.8084L35.9346 54.6337H35.3885L36.721 45.1312H37.5948L39.8011 52.4711L44.0609 45.1312H44.9346L43.6021 54.6118ZM43.2963 54.3934H43.4055L44.6725 45.3278H44.1701L39.7574 52.9298H39.8448L44.2575 45.3497H44.5633L43.2963 54.3934ZM35.6069 54.3934H35.7162L36.9613 45.4589L37.2453 45.4371L39.539 52.9298H39.6701L37.3982 45.3278H36.8739L35.6069 54.3934Z" fill="black"/>
<path d="M50.1554 49.6968H54.9613L54.9176 50.0463H50.1118L49.5438 54.1531H54.7428L54.6991 54.4808H49.1724L50.4613 45.1968H55.9661L55.9224 45.5244H50.7234L50.1554 49.6968Z" fill="black"/>
<path d="M54.7648 54.6118H49.0196L50.3521 45.1094H56.0973L56.0099 45.6555H50.8109L50.2647 49.5875H55.0706L54.9832 50.1555H50.1774L49.6312 54.0439H54.8084L54.7648 54.6118ZM49.2817 54.3934H54.5682L54.59 54.2842H49.3909L50.0026 49.9589H54.8084L54.8303 49.8278H50.0244L50.6361 45.4589H55.8351L55.857 45.3497H50.5706L49.2817 54.3934Z" fill="black"/>
<path d="M62.6071 54.1968L63.8741 45.2405H64.2017L62.9129 54.5245H62.3449L58.1508 45.6337L56.8838 54.5026H56.5342L57.8231 45.2186H58.3255L62.6071 54.1968Z" fill="black"/>
<path d="M63.0003 54.6118H62.2794L58.2163 46.0269L56.993 54.6118H56.425L57.7575 45.1094H58.4347L58.4565 45.1749L62.5634 53.8036L63.7867 45.1094H64.3328L63.0003 54.6118ZM62.6944 54.3934H62.8036L64.0706 45.3278H63.9614L62.6944 54.3934ZM62.4104 54.3934H62.5852L58.2818 45.3278H58.107L62.4104 54.3934ZM56.6653 54.3934H56.7963L58.0852 45.3278H57.9323L56.6653 54.3934Z" fill="black"/>
<path d="M66.0585 47.6871C66.2988 45.9832 68.0464 45.0875 69.6847 45.0875C70.8425 45.0875 71.9347 45.5463 72.3498 46.4419L72.0221 46.6385C71.6726 45.7866 70.6677 45.4152 69.5974 45.4152C68.1338 45.4152 66.6046 46.1579 66.3862 47.6871L65.7964 51.9905C65.5779 53.5414 66.9323 54.306 68.3959 54.306C69.8595 54.306 71.4542 53.5414 71.6508 51.9905L71.8911 50.3303H69.0512L69.0949 50.0244H72.2624L71.9784 52.0123C71.7381 53.7599 69.9687 54.6555 68.3522 54.6555C66.7357 54.6555 65.2284 53.7817 65.4687 52.0123L66.0585 47.6871Z" fill="black"/>
<path d="M68.3522 54.7429C67.3037 54.7429 66.3862 54.3934 65.8619 53.7817C65.4468 53.3011 65.2721 52.6895 65.3595 51.9904L65.9493 47.687C66.1896 45.9176 68.0027 45.0001 69.6847 45.0001C70.9954 45.0001 72.044 45.5462 72.459 46.42L72.5027 46.5074L71.9784 46.8132L71.9347 46.704C71.6289 45.9831 70.777 45.5462 69.6192 45.5462C68.2648 45.5462 66.7138 46.2234 66.5172 47.7089L65.9274 52.0123C65.8619 52.5584 65.9711 53.039 66.2988 53.4103C66.7357 53.9128 67.5003 54.1968 68.3959 54.1968C69.8158 54.1968 71.3449 53.4322 71.5415 51.9686L71.76 50.4176H68.9202L69.0075 49.8933H72.3935L72.0876 51.9904C71.8255 53.8909 69.9687 54.7429 68.3522 54.7429ZM66.1677 47.7089L65.5779 52.0123C65.4905 52.6676 65.6435 53.2137 66.0148 53.6288C66.5172 54.1968 67.3692 54.5244 68.3522 54.5244C69.8813 54.5244 71.6289 53.738 71.8692 51.9904L72.1313 50.1336H69.1823L69.1605 50.221H72.0003L71.7381 52.0123C71.5197 53.6069 69.8813 54.4152 68.374 54.4152C67.4129 54.4152 66.5828 54.1094 66.1022 53.5414C65.7308 53.1264 65.5779 52.5802 65.6653 51.9686L66.2551 47.6652C66.4736 46.0487 68.1338 45.3059 69.5755 45.3059C70.7551 45.3059 71.6726 45.7428 72.044 46.4856L72.175 46.3982C71.7818 45.6555 70.8207 45.1967 69.641 45.1967C68.1119 45.1967 66.3862 46.0487 66.1677 47.7089Z" fill="black"/>
<path d="M73.9444 54.5026H73.6168L74.9056 45.2186H75.2333L73.9444 54.5026Z" fill="black"/>
<path d="M74.0318 54.6118H73.4857L74.8182 45.1094H75.3644L74.0318 54.6118ZM73.726 54.3934H73.8352L75.1022 45.3278H74.993L73.726 54.3934Z" fill="black"/>
<path d="M82.4202 54.1968L83.6872 45.2405H84.0149L82.726 54.5245H82.1581L77.9639 45.6555L76.6969 54.5245H76.3474L77.6362 45.2405H78.1386L82.4202 54.1968Z" fill="black"/>
<path d="M82.8134 54.6118H82.0925L78.0294 46.0269L76.8061 54.6118H76.2382L77.5707 45.1094H78.2479L78.2697 45.1749L82.3765 53.8036L83.5998 45.1094H84.146L82.8134 54.6118ZM82.5076 54.3934H82.6168L83.8838 45.3278H83.7746L82.5076 54.3934ZM82.2236 54.3934H82.3984L78.095 45.3278H77.9202L82.2236 54.3934ZM76.4785 54.3934H76.6095L77.8984 45.3278H77.7673L76.4785 54.3934Z" fill="black"/>
<path d="M86.1338 49.6968H90.9396L90.8959 50.0463H86.0901L85.5221 54.1531H90.6993L90.6556 54.4808H85.1289L86.4178 45.1968H91.9445L91.9008 45.5244H86.7017L86.1338 49.6968Z" fill="black"/>
<path d="M90.7649 54.6118H85.0197L86.3522 45.1094H92.0974L92.01 45.6555H86.811L86.2649 49.5875H91.0707L90.9833 50.1555H86.1775L85.6314 54.0439H90.8086L90.7649 54.6118ZM85.26 54.3934H90.5464L90.5683 54.2842H85.3692L85.9809 49.9589H90.7867L90.8086 49.8278H86.0027L86.6144 45.4589H91.8134L91.8353 45.3497H86.5488L85.26 54.3934Z" fill="black"/>
<path d="M93.5392 49.6968H98.3451L98.3014 50.0463H93.4955L92.9276 54.1531H98.1266L98.0829 54.4808H92.5562L93.8451 45.1968H99.3718L99.3281 45.5244H94.129L93.5392 49.6968Z" fill="black"/>
<path d="M98.1484 54.6118H92.4033L93.7358 45.1094H99.481L99.3936 45.6555H94.1945L93.6484 49.5875H98.4543L98.3669 50.1555H93.561L93.0149 54.0439H98.1921L98.1484 54.6118ZM92.6654 54.3934H97.9518L97.9737 54.2842H92.7746L93.3863 49.9589H98.1921L98.214 49.8278H93.4081L94.0198 45.4589H99.2188L99.2407 45.3497H93.9542L92.6654 54.3934Z" fill="black"/>
<path d="M105.466 54.5026L102.932 50.3521H100.813L100.246 54.5026H99.9397L101.229 45.2186H104.505C106.122 45.2186 107.258 45.8521 107.039 47.7308C106.755 49.6531 105.488 50.3521 103.806 50.3521H103.304L105.86 54.5026H105.466ZM103.828 50.0682C105.51 50.0682 106.471 49.391 106.712 47.7526C106.952 46.0706 105.947 45.5026 104.462 45.5244H101.491L100.857 50.0682H103.828Z" fill="black"/>
<path d="M106.034 54.6118H105.401L102.867 50.4613H100.923L100.355 54.6118H99.8086L101.141 45.1094H104.505C105.532 45.1094 106.253 45.3497 106.69 45.8521C107.083 46.289 107.236 46.9225 107.127 47.7526C106.864 49.5657 105.75 50.4613 103.784 50.4613H103.479L106.034 54.6118ZM105.532 54.3934H105.663L103.107 50.2429H103.806C105.641 50.2429 106.69 49.3909 106.93 47.7089C107.017 46.9662 106.886 46.3764 106.537 45.9832C106.144 45.5463 105.466 45.306 104.505 45.306H101.316L100.049 54.3715H100.136L100.704 50.221H102.976L105.532 54.3934ZM103.828 50.1774H100.726L101.403 45.4152H104.462C105.379 45.3933 106.056 45.6118 106.428 46.0487C106.777 46.4419 106.908 47.0317 106.799 47.7526C106.58 49.4128 105.641 50.1774 103.828 50.1774ZM100.988 49.9589H103.828C105.532 49.9589 106.384 49.2817 106.602 47.7307C106.69 47.0536 106.58 46.5511 106.275 46.2016C105.925 45.8084 105.313 45.6118 104.462 45.6336H101.578L100.988 49.9589Z" fill="black"/>
<path d="M108.219 54.5026H107.891L109.18 45.2186H109.508L108.219 54.5026Z" fill="black"/>
<path d="M108.306 54.6118H107.76L109.093 45.1094H109.639L108.306 54.6118ZM108.022 54.3934H108.131L109.398 45.3278H109.289L108.022 54.3934Z" fill="black"/>
<path d="M116.716 54.1968L117.983 45.2405H118.311L117.022 54.5245H116.454L112.26 45.6555L110.993 54.5245H110.644L111.932 45.2405H112.435L116.716 54.1968Z" fill="black"/>
<path d="M117.088 54.6118H116.367L112.304 46.0269L111.081 54.6118H110.513L111.845 45.1094H112.522L112.544 45.1749L116.651 53.8036L117.874 45.1094H118.42L117.088 54.6118ZM116.804 54.3934H116.913L118.18 45.3278H118.071L116.804 54.3934ZM116.498 54.3934H116.673L112.369 45.3278H112.195L116.498 54.3934ZM110.775 54.3934H110.906L112.195 45.3278H112.064L110.775 54.3934Z" fill="black"/>
<path d="M120.168 47.6871C120.408 45.9832 122.156 45.0875 123.794 45.0875C124.952 45.0875 126.044 45.5463 126.459 46.4419L126.132 46.6385C125.782 45.7866 124.777 45.4152 123.707 45.4152C122.243 45.4152 120.714 46.1579 120.496 47.6871L119.906 51.9905C119.687 53.5414 121.042 54.306 122.505 54.306C123.969 54.306 125.564 53.5414 125.76 51.9905L126.001 50.3303H123.161L123.204 50.0244H126.372L126.088 52.0123C125.848 53.7599 124.078 54.6555 122.462 54.6555C120.845 54.6555 119.338 53.7817 119.578 52.0123L120.168 47.6871Z" fill="black"/>
<path d="M122.462 54.7429C121.413 54.7429 120.496 54.3934 119.971 53.7817C119.556 53.3011 119.382 52.6895 119.469 51.9904L120.059 47.687C120.299 45.9176 122.112 45.0001 123.794 45.0001C125.105 45.0001 126.153 45.5462 126.568 46.42L126.612 46.5074L126.088 46.8132L126.044 46.704C125.738 45.9831 124.886 45.5462 123.729 45.5462C122.374 45.5462 120.823 46.2234 120.627 47.7089L120.037 52.0123C119.971 52.5584 120.081 53.039 120.408 53.4103C120.845 53.9128 121.61 54.1968 122.505 54.1968C123.925 54.1968 125.454 53.4322 125.651 51.9686L125.869 50.4176H123.03L123.117 49.8933H126.503L126.197 51.9904C125.935 53.8909 124.078 54.7429 122.462 54.7429ZM120.277 47.7089L119.687 52.0123C119.6 52.6676 119.753 53.2137 120.124 53.6288C120.627 54.1968 121.479 54.5244 122.462 54.5244C123.991 54.5244 125.738 53.738 125.979 51.9904L126.241 50.1336H123.292L123.27 50.221H126.11L125.848 52.0123C125.629 53.6069 123.991 54.4152 122.483 54.4152C121.522 54.4152 120.692 54.1094 120.212 53.5414C119.84 53.1264 119.687 52.5802 119.775 51.9686L120.365 47.6652C120.583 46.0487 122.243 45.3059 123.685 45.3059C124.865 45.3059 125.782 45.7428 126.153 46.4856L126.284 46.3982C125.891 45.6555 124.93 45.1967 123.75 45.1967C122.199 45.1967 120.496 46.0487 120.277 47.7089Z" fill="black"/>
<path d="M136.945 51.0512L137.163 51.1604L136.158 52.5148L137.36 54.1531H136.988L135.983 52.7987C135.022 53.8691 134.105 54.5463 132.925 54.5463C131.505 54.5463 130.5 53.6288 130.719 52.1652C130.894 50.8982 132.073 49.9589 133.275 49.3036C132.794 48.6264 132.292 47.8181 132.401 47.0536C132.576 45.8958 133.646 45.1749 134.738 45.1749C135.699 45.1749 136.486 45.8958 136.333 46.9007C136.158 48.0584 135.11 48.7138 134.083 49.2162L133.755 49.391L136.005 52.3182L136.945 51.0512ZM133.406 49.5002C132.379 50.0463 131.178 50.9201 131.003 52.1434C130.828 53.4322 131.571 54.2842 133.034 54.2842C134.105 54.2842 135.088 53.4541 135.765 52.624L133.406 49.5002ZM132.685 47.0536C132.576 47.7963 133.144 48.6701 133.537 49.1944C134.716 48.6482 135.809 48.0366 135.962 46.988C136.093 46.1142 135.525 45.5026 134.607 45.5026C133.69 45.4808 132.816 46.1361 132.685 47.0536Z" fill="black"/>
<path d="M132.903 54.6555C132.117 54.6555 131.462 54.3934 131.025 53.891C130.632 53.4322 130.479 52.8206 130.566 52.1434C130.719 51.073 131.549 50.1118 133.078 49.2599C132.598 48.5827 132.139 47.7744 132.248 47.0317C132.445 45.7429 133.624 45.0657 134.695 45.0657C135.241 45.0657 135.721 45.2841 136.049 45.6555C136.355 46.005 136.464 46.4419 136.399 46.9225C136.224 48.1239 135.132 48.8011 134.083 49.3036L133.865 49.4128L135.962 52.1215L136.923 50.8764L137.316 51.0948L136.289 52.471L137.578 54.2186H136.923L135.962 52.9298C134.891 54.1531 133.974 54.6555 132.903 54.6555ZM134.695 45.306C133.712 45.306 132.641 45.9176 132.467 47.0972C132.357 47.7963 132.838 48.5827 133.318 49.2599L133.384 49.3691L133.275 49.4346C131.746 50.2647 130.916 51.204 130.784 52.2089C130.697 52.8424 130.828 53.3885 131.178 53.7817C131.549 54.2186 132.161 54.4589 132.882 54.4589C133.908 54.4589 134.804 53.9565 135.874 52.755L135.962 52.6458L137.01 54.0657H137.119L135.983 52.5366L136.967 51.2259H136.945L135.94 52.5584L133.515 49.4128L133.952 49.1725C134.957 48.6919 135.983 48.0366 136.158 46.9443C136.224 46.5293 136.115 46.1579 135.852 45.8521C135.612 45.4807 135.175 45.306 134.695 45.306ZM133.034 54.3934C132.27 54.3934 131.658 54.1749 131.287 53.738C130.937 53.3448 130.806 52.7769 130.894 52.1434C131.025 51.1385 131.855 50.221 133.34 49.4128L133.428 49.3691L135.918 52.6458L135.852 52.7113C135.219 53.4759 134.214 54.3934 133.034 54.3934ZM133.384 49.6312C132.008 50.3958 131.243 51.2259 131.134 52.1434C131.047 52.7332 131.178 53.2138 131.462 53.5633C131.789 53.9565 132.335 54.1531 133.056 54.1531C134.105 54.1531 135.044 53.323 135.656 52.6021L133.384 49.6312ZM133.515 49.3254L133.471 49.2599C133.034 48.6701 132.488 47.8181 132.598 47.0317C132.729 46.1142 133.624 45.3715 134.629 45.3715C135.11 45.3715 135.525 45.5463 135.787 45.8521C136.049 46.1361 136.136 46.5511 136.071 46.988C135.918 48.1021 134.76 48.7356 133.581 49.2817L133.515 49.3254ZM132.794 47.0535C132.685 47.7744 133.297 48.6701 133.581 49.0414C134.673 48.539 135.721 47.9273 135.852 46.9443C135.918 46.5511 135.831 46.2234 135.612 45.9832C135.394 45.721 135.022 45.59 134.607 45.59C133.712 45.59 132.925 46.2453 132.794 47.0535Z" fill="black"/>
<path d="M142.821 47.6871C143.061 45.9832 144.634 45.0875 146.403 45.0875C147.561 45.0875 148.741 45.5244 149.178 46.4201L148.872 46.6167C148.501 45.8084 147.452 45.3934 146.403 45.3934C144.962 45.3934 143.367 46.1579 143.17 47.6652L142.581 52.0123C142.362 53.5414 143.738 54.2842 145.18 54.2842C146.098 54.2842 147.365 53.9128 147.976 53.1264L148.238 53.2793C147.561 54.1749 146.316 54.6337 145.136 54.6337C143.52 54.6337 142.013 53.7599 142.253 52.0342L142.821 47.6871Z" fill="black"/>
<path d="M145.115 54.7429C144.066 54.7429 143.149 54.3934 142.602 53.7817C142.187 53.323 142.034 52.7113 142.122 52.0341L142.712 47.687C142.93 46.0705 144.416 45.0001 146.403 45.0001C147.736 45.0001 148.85 45.5462 149.265 46.3982L149.309 46.4856L148.806 46.7914L148.763 46.6822C148.435 45.9831 147.517 45.5244 146.382 45.5244C144.984 45.5244 143.454 46.2671 143.258 47.7089L142.668 52.056C142.602 52.5802 142.712 53.039 143.039 53.4103C143.476 53.9128 144.263 54.1968 145.158 54.1968C146.076 54.1968 147.299 53.8036 147.867 53.0827L147.933 53.0171L148.391 53.2574L148.326 53.3667C147.67 54.1968 146.447 54.7429 145.115 54.7429ZM142.93 47.7089L142.34 52.056C142.253 52.6676 142.406 53.2137 142.777 53.6288C143.258 54.1968 144.132 54.5244 145.115 54.5244C146.294 54.5244 147.43 54.0438 148.064 53.323L147.998 53.2793C147.321 54.0657 146.076 54.4152 145.158 54.4152C144.197 54.4152 143.345 54.1094 142.865 53.5414C142.515 53.1264 142.362 52.6021 142.45 52.0123L143.039 47.6652C143.258 46.1142 144.874 45.2841 146.382 45.2841C147.539 45.2841 148.501 45.7428 148.894 46.4637L149.025 46.3763C148.61 45.6555 147.605 45.1967 146.403 45.1967C144.503 45.1967 143.149 46.1797 142.93 47.7089Z" fill="black"/>
<path d="M150.467 47.7089C150.707 45.9613 152.476 45.0875 154.289 45.0875C156.015 45.0875 157.61 45.9613 157.391 47.7089L156.802 51.9905C156.561 53.738 154.705 54.6337 152.979 54.6337C151.253 54.6337 149.658 53.738 149.899 51.9905L150.467 47.7089ZM150.205 51.9905C149.986 53.5414 151.428 54.306 153.001 54.306C154.552 54.306 156.255 53.5414 156.452 51.9905L157.042 47.7089C157.26 46.0924 155.775 45.3934 154.202 45.3934C152.651 45.4152 151.013 46.0924 150.772 47.7089L150.205 51.9905Z" fill="black"/>
<path d="M152.957 54.7429C151.799 54.7429 150.816 54.3715 150.248 53.7162C149.833 53.2574 149.68 52.6458 149.768 51.9686L150.357 47.687C150.619 45.8084 152.52 44.9783 154.289 44.9783C155.447 44.9783 156.452 45.3496 156.998 46.005C157.413 46.4637 157.566 47.0754 157.479 47.7307L156.889 52.0123C156.649 53.8035 154.748 54.7429 152.957 54.7429ZM154.289 45.1967C152.607 45.1967 150.816 45.9831 150.576 47.7307L149.986 52.0123C149.899 52.6239 150.052 53.1482 150.423 53.5851C150.947 54.1749 151.886 54.5244 152.957 54.5244C154.639 54.5244 156.452 53.6506 156.67 51.9904L157.26 47.7089C157.348 47.0972 157.195 46.5729 156.823 46.1579C156.321 45.5462 155.382 45.1967 154.289 45.1967ZM153.001 54.4152C151.93 54.4152 151.035 54.0875 150.532 53.4977C150.161 53.0827 150.03 52.5802 150.117 51.9686L150.707 47.687C150.947 45.9394 152.76 45.3059 154.224 45.2841C155.338 45.2841 156.255 45.6118 156.758 46.1797C157.107 46.5948 157.26 47.0972 157.173 47.7089L156.583 51.9904C156.343 53.6725 154.573 54.4152 153.001 54.4152ZM150.314 52.0123C150.248 52.5366 150.357 52.9953 150.685 53.3667C151.144 53.8909 151.996 54.1968 153.001 54.1968C154.464 54.1968 156.146 53.4977 156.343 51.9904L156.933 47.7089C156.998 47.1627 156.889 46.704 156.583 46.3545C156.124 45.8302 155.272 45.5244 154.224 45.5244C152.848 45.5462 151.144 46.1142 150.903 47.7307L150.314 52.0123Z" fill="black"/>
<path d="M164.731 54.1968L165.998 45.2405H166.326L165.037 54.5245H164.469L160.275 45.6555L159.008 54.5245H158.658L159.947 45.2405H160.45L164.731 54.1968Z" fill="black"/>
<path d="M165.124 54.6118H164.403L160.34 46.0269L159.117 54.6118H158.549L159.882 45.1094H160.559L160.581 45.1749L164.687 53.8036L165.911 45.1094H166.457L165.124 54.6118ZM164.819 54.3934H164.928L166.195 45.3278H166.086L164.819 54.3934ZM164.535 54.3934H164.709L160.406 45.3278H160.231L164.535 54.3934ZM158.789 54.3934H158.899L160.187 45.3278H160.056L158.789 54.3934Z" fill="black"/>
<path d="M170.76 49.6094C172.246 49.9152 173.819 50.5269 173.425 52.34C173.12 53.8254 171.612 54.6337 169.974 54.6337C168.838 54.6337 167.68 54.1968 167.134 53.1482L167.462 53.0172C167.942 53.891 168.947 54.3279 170.039 54.3279C171.328 54.3279 172.683 53.7162 173.076 52.34C173.425 50.6798 172.027 50.221 170.629 49.9152C169.275 49.6312 167.68 49.107 168.008 47.3375C168.27 45.8084 169.777 45.0875 171.306 45.0875C172.508 45.0875 173.556 45.5026 173.993 46.5074L173.666 46.6167C173.294 45.7866 172.289 45.3934 171.263 45.3934C169.952 45.3934 168.62 45.9395 168.336 47.3375C168.03 48.7138 169.297 49.3036 170.76 49.6094Z" fill="black"/>
<path d="M169.974 54.7429C168.641 54.7429 167.549 54.1531 167.025 53.1919L166.959 53.0827L167.484 52.8642L167.527 52.9516C167.964 53.738 168.882 54.1968 170.018 54.1968C171.132 54.1968 172.552 53.6943 172.945 52.2963C173.272 50.7453 171.962 50.3084 170.586 50.0026C169.668 49.806 167.505 49.3472 167.877 47.3157C168.183 45.5899 169.908 44.9783 171.285 44.9783C172.661 44.9783 173.644 45.5026 174.081 46.4637L174.124 46.5729L173.6 46.7695L173.556 46.6822C173.185 45.8302 172.115 45.5244 171.241 45.5244C170.673 45.5244 168.772 45.6555 168.423 47.3812C168.336 47.7962 168.379 48.1239 168.576 48.4298C168.904 48.9103 169.603 49.2817 170.76 49.5001C171.59 49.6749 172.748 49.9807 173.294 50.789C173.578 51.2259 173.666 51.7502 173.535 52.3618C173.229 53.8036 171.831 54.7429 169.974 54.7429ZM167.287 53.1919C167.789 54.022 168.772 54.5244 169.974 54.5244C171.722 54.5244 173.032 53.6506 173.316 52.3181C173.425 51.7501 173.36 51.2914 173.12 50.92C172.639 50.1773 171.525 49.8715 170.739 49.7186C169.537 49.4783 168.772 49.0851 168.423 48.539C168.205 48.1895 168.139 47.7963 168.248 47.3375C168.554 45.8521 170.018 45.3059 171.285 45.3059C172.442 45.3059 173.36 45.7647 173.753 46.5074L173.884 46.4637C173.469 45.6555 172.573 45.1967 171.35 45.1967C170.039 45.1967 168.423 45.7647 168.161 47.3594C167.855 48.9759 169.275 49.5001 170.695 49.806C172.115 50.1336 173.578 50.6142 173.207 52.3618C172.792 53.8909 171.263 54.4371 170.083 54.4371C168.904 54.4371 167.942 53.9565 167.462 53.1482L167.287 53.1919Z" fill="black"/>
<path d="M181.639 45.5463H178.537L177.292 54.5026H176.964L178.209 45.5463H175.107L175.151 45.2186H181.661L181.639 45.5463Z" fill="black"/>
<path d="M177.379 54.6118H176.833L178.078 45.6555H174.976L175.064 45.1094H181.792L181.705 45.6555H178.603L177.379 54.6118ZM177.095 54.3934H177.205L178.45 45.437H181.552L181.573 45.3278H175.282L175.26 45.437H178.34L177.095 54.3934Z" fill="black"/>
<path d="M187.406 54.5026L184.872 50.3521H182.753L182.185 54.5026H181.879L183.168 45.2186H186.445C188.061 45.2186 189.197 45.8521 188.979 47.7308C188.695 49.6531 187.428 50.3521 185.746 50.3521H185.243L187.799 54.5026H187.406ZM185.768 50.0682C187.45 50.0682 188.411 49.391 188.651 47.7526C188.891 46.0706 187.887 45.5026 186.401 45.5244H183.43L182.797 50.0682H185.768Z" fill="black"/>
<path d="M187.996 54.6118H187.362L184.828 50.4613H182.884L182.316 54.6118H181.77L183.103 45.1094H186.467C187.493 45.1094 188.214 45.3497 188.651 45.8521C189.044 46.289 189.197 46.9225 189.088 47.7526C188.826 49.5657 187.712 50.4613 185.746 50.4613H185.44L187.996 54.6118ZM187.472 54.3934H187.603L185.047 50.2429H185.746C187.581 50.2429 188.629 49.3909 188.87 47.7089C188.957 46.9662 188.826 46.3764 188.476 45.9832C188.083 45.5463 187.406 45.306 186.445 45.306H183.256L181.989 54.3715H182.076L182.644 50.221H184.916L187.472 54.3934ZM185.768 50.1774H182.666L183.343 45.4152H186.423C187.34 45.3933 188.018 45.6118 188.389 46.0487C188.739 46.4419 188.87 47.0317 188.76 47.7526C188.52 49.4128 187.581 50.1774 185.768 50.1774ZM182.928 49.9589H185.768C187.472 49.9589 188.324 49.2817 188.542 47.7307C188.629 47.0536 188.52 46.5511 188.214 46.2016C187.865 45.8084 187.253 45.6118 186.401 45.6336H183.539L182.928 49.9589Z" fill="black"/>
<path d="M190.442 51.9687C190.224 53.5415 191.578 54.3279 193.042 54.3279C194.505 54.3279 196.078 53.5415 196.297 51.9687L197.236 45.2405H197.564L196.624 51.9687C196.384 53.7381 194.615 54.6337 192.998 54.6337C191.382 54.6337 189.874 53.7381 190.115 51.9687L191.054 45.2405H191.382L190.442 51.9687Z" fill="black"/>
<path d="M192.998 54.7429C191.95 54.7429 191.032 54.3934 190.508 53.7599C190.093 53.2793 189.918 52.6458 190.006 51.9249L190.967 45.0875H191.513L190.552 51.9468C190.464 52.5147 190.595 52.9953 190.923 53.3885C191.36 53.891 192.124 54.1968 193.02 54.1968C194.374 54.1968 195.947 53.4978 196.166 51.9249L197.127 45.0875H197.673L196.712 51.9468C196.493 53.7817 194.68 54.7429 192.998 54.7429ZM191.163 45.3278L190.224 51.9686C190.137 52.624 190.29 53.1701 190.661 53.6288C191.141 54.1968 192.015 54.5245 192.998 54.5245C194.571 54.5245 196.275 53.6288 196.515 51.9468L197.433 45.3278H197.324L196.384 51.9686C196.144 53.6507 194.462 54.4152 193.02 54.4152C192.059 54.4152 191.229 54.0876 190.748 53.5414C190.377 53.1045 190.224 52.5584 190.311 51.9249L191.229 45.306H191.163V45.3278Z" fill="black"/>
<path d="M199.399 47.6871C199.639 45.9832 201.212 45.0875 202.981 45.0875C204.139 45.0875 205.319 45.5244 205.756 46.4201L205.45 46.6167C205.078 45.8084 204.03 45.3934 202.981 45.3934C201.54 45.3934 199.945 46.1579 199.748 47.6652L199.158 52.0123C198.94 53.5414 200.316 54.2842 201.758 54.2842C202.676 54.2842 203.942 53.9128 204.554 53.1264L204.816 53.2793C204.139 54.1749 202.894 54.6337 201.714 54.6337C200.098 54.6337 198.591 53.7599 198.831 52.0342L199.399 47.6871Z" fill="black"/>
<path d="M201.692 54.7429C200.644 54.7429 199.726 54.3934 199.18 53.7817C198.765 53.323 198.612 52.7113 198.7 52.0341L199.29 47.687C199.508 46.0705 200.993 45.0001 202.981 45.0001C204.314 45.0001 205.428 45.5462 205.843 46.3982L205.887 46.4856L205.384 46.7914L205.341 46.6822C205.013 45.9831 204.095 45.5244 202.959 45.5244C201.561 45.5244 200.032 46.2671 199.836 47.7089L199.246 52.056C199.18 52.5802 199.29 53.039 199.617 53.4103C200.054 53.9128 200.841 54.1968 201.736 54.1968C202.654 54.1968 203.877 53.8036 204.445 53.0827L204.51 53.0171L204.969 53.2574L204.904 53.3667C204.226 54.1968 203.003 54.7429 201.692 54.7429ZM199.508 47.7089L198.918 52.056C198.831 52.6676 198.984 53.2137 199.355 53.6288C199.836 54.1968 200.709 54.5244 201.692 54.5244C202.872 54.5244 204.008 54.0438 204.641 53.323L204.576 53.2793C203.899 54.0657 202.654 54.4152 201.736 54.4152C200.775 54.4152 199.923 54.1094 199.442 53.5414C199.093 53.1264 198.94 52.6021 199.027 52.0123L199.617 47.6652C199.836 46.1142 201.474 45.2841 202.959 45.2841C204.117 45.2841 205.078 45.7428 205.472 46.4637L205.603 46.3763C205.188 45.6555 204.183 45.1967 202.981 45.1967C201.081 45.1967 199.705 46.1797 199.508 47.7089Z" fill="black"/>
<path d="M213.095 45.5463H209.993L208.748 54.5026H208.421L209.666 45.5463H206.564L206.607 45.2186H213.117L213.095 45.5463Z" fill="black"/>
<path d="M208.836 54.6118H208.29L209.535 45.6555H206.433L206.52 45.1094H213.248L213.161 45.6555H210.059L208.836 54.6118ZM208.552 54.3934H208.661L209.906 45.437H213.008L213.03 45.3278H206.739L206.717 45.437H209.797L208.552 54.3934Z" fill="black"/>
<path d="M213.642 54.5026H213.314L214.603 45.2186H214.93L213.642 54.5026Z" fill="black"/>
<path d="M213.751 54.6118H213.205L214.537 45.1094H215.083L213.751 54.6118ZM213.445 54.3934H213.554L214.821 45.3278H214.712L213.445 54.3934Z" fill="black"/>
<path d="M216.831 47.7089C217.071 45.9613 218.841 45.0875 220.654 45.0875C222.379 45.0875 223.974 45.9613 223.756 47.7089L223.166 51.9905C222.926 53.738 221.069 54.6337 219.343 54.6337C217.617 54.6337 216.023 53.738 216.263 51.9905L216.831 47.7089ZM216.569 51.9905C216.35 53.5414 217.792 54.306 219.365 54.306C220.916 54.306 222.62 53.5414 222.816 51.9905L223.406 47.7089C223.625 46.0924 222.139 45.3934 220.566 45.3934C219.015 45.4152 217.377 46.0924 217.137 47.7089L216.569 51.9905Z" fill="black"/>
<path d="M219.321 54.7429C218.163 54.7429 217.18 54.3715 216.612 53.7162C216.197 53.2574 216.044 52.6458 216.132 51.9686L216.722 47.687C216.984 45.8084 218.884 44.9783 220.654 44.9783C221.812 44.9783 222.816 45.3496 223.362 46.005C223.778 46.4637 223.93 47.0754 223.843 47.7307L223.253 52.0123C223.013 53.8035 221.091 54.7429 219.321 54.7429ZM220.632 45.1967C218.95 45.1967 217.159 45.9831 216.918 47.7307L216.328 52.0123C216.241 52.6239 216.394 53.1482 216.765 53.5851C217.29 54.1749 218.229 54.5244 219.299 54.5244C220.981 54.5244 222.794 53.6506 223.013 51.9904L223.603 47.7089C223.69 47.0972 223.537 46.5729 223.166 46.1579C222.685 45.5462 221.724 45.1967 220.632 45.1967ZM219.343 54.4152C218.273 54.4152 217.377 54.0875 216.875 53.4977C216.503 53.0827 216.372 52.5802 216.46 51.9686L217.049 47.687C217.29 45.9394 219.103 45.3059 220.566 45.2841C221.68 45.2841 222.598 45.6118 223.1 46.1797C223.45 46.5948 223.603 47.0972 223.515 47.7089L222.926 51.9904C222.707 53.6725 220.916 54.4152 219.343 54.4152ZM216.678 52.0123C216.612 52.5366 216.722 52.9953 217.049 53.3667C217.508 53.8909 218.36 54.1968 219.365 54.1968C220.828 54.1968 222.511 53.4977 222.707 51.9904L223.297 47.7089C223.362 47.1627 223.253 46.704 222.947 46.3545C222.489 45.8302 221.637 45.5244 220.588 45.5244C219.212 45.5462 217.508 46.1142 217.268 47.7307L216.678 52.0123Z" fill="black"/>
<path d="M231.074 54.1968L232.341 45.2405H232.668L231.38 54.5245H230.812L226.617 45.6555L225.35 54.5245H225.001L226.29 45.2405H226.792L231.074 54.1968Z" fill="black"/>
<path d="M231.467 54.6118H230.746L226.683 46.0269L225.46 54.6118H224.892L226.224 45.1094H226.901L226.923 45.1749L231.03 53.8036L232.253 45.1094H232.799L231.467 54.6118ZM231.161 54.3934H231.27L232.537 45.3278H232.428L231.161 54.3934ZM230.877 54.3934H231.052L226.748 45.3278H226.574L230.877 54.3934ZM225.132 54.3934H225.263L226.552 45.3278H226.421L225.132 54.3934Z" fill="black"/>
<defs>
<linearGradient id="paint0_linear_15_230" x1="209.852" y1="2.30018" x2="209.852" y2="27.87" gradientUnits="userSpaceOnUse">
<stop stop-color="#00B8F1"/>
<stop offset="0.6674" stop-color="#1B75BB"/>
<stop offset="1" stop-color="#1B75BB"/>
</linearGradient>
<linearGradient id="paint1_linear_15_230" x1="257.172" y1="2.30018" x2="257.172" y2="27.87" gradientUnits="userSpaceOnUse">
<stop stop-color="#00B8F1"/>
<stop offset="0.6674" stop-color="#1B75BB"/>
<stop offset="1" stop-color="#1B75BB"/>
</linearGradient>
</defs>
</svg>
