<svg width="18" height="16" viewBox="0 0 18 16" fill="none" xmlns="http://www.w3.org/2000/svg">
<path d="M7.33333 4.66671V3.00004C7.33333 2.55801 7.50893 2.13409 7.82149 1.82153C8.13405 1.50897 8.55797 1.33337 9 1.33337H14.8333C15.2754 1.33337 15.6993 1.50897 16.0118 1.82153C16.3244 2.13409 16.5 2.55801 16.5 3.00004V13C16.5 13.4421 16.3244 13.866 16.0118 14.1786C15.6993 14.4911 15.2754 14.6667 14.8333 14.6667H9C8.55797 14.6667 8.13405 14.4911 7.82149 14.1786C7.50893 13.866 7.33333 13.4421 7.33333 13V11.3334" stroke="#121212" stroke-width="1.5" stroke-linecap="round" stroke-linejoin="round"/>
<path d="M11.5 8H1.5M1.5 8L4 5.5M1.5 8L4 10.5" stroke="#121212" stroke-width="1.5" stroke-linecap="round" stroke-linejoin="round"/>
</svg>
