<svg width="18" height="18" viewBox="0 0 18 18" fill="none" xmlns="http://www.w3.org/2000/svg">
<path d="M17.4766 0.525489C17.3488 0.397709 17.1867 0.309595 17.01 0.271756C16.8333 0.233916 16.6494 0.247964 16.4805 0.312208L0.854296 6.22666H0.851171C0.670999 6.29596 0.516612 6.41918 0.409094 6.57951C0.301576 6.73983 0.24617 6.92944 0.250443 7.12243C0.254717 7.31542 0.318461 7.50239 0.432971 7.65779C0.54748 7.8132 0.707171 7.92947 0.890233 7.99072L0.906249 7.9958L6.26953 10.286C6.37414 10.3178 6.48525 10.3216 6.59177 10.2969C6.69828 10.2723 6.79648 10.2202 6.87656 10.1458L15.4844 2.1251C15.51 2.09945 15.5405 2.0791 15.574 2.06522C15.6075 2.05134 15.6434 2.0442 15.6797 2.0442C15.716 2.0442 15.7519 2.05134 15.7854 2.06522C15.8189 2.0791 15.8493 2.09945 15.875 2.1251C15.9006 2.15075 15.921 2.1812 15.9349 2.21471C15.9488 2.24822 15.9559 2.28414 15.9559 2.32041C15.9559 2.35668 15.9488 2.3926 15.9349 2.42611C15.921 2.45963 15.9006 2.49007 15.875 2.51572L7.85391 11.1196C7.77948 11.1997 7.72737 11.2979 7.70276 11.4044C7.67815 11.5109 7.68191 11.6221 7.71367 11.7267L10.0047 17.0931C10.007 17.1009 10.0094 17.1079 10.0121 17.1153C10.1371 17.4774 10.4535 17.7329 10.8359 17.7501H10.875C11.0681 17.7512 11.257 17.6942 11.4172 17.5865C11.5774 17.4788 11.7016 17.3254 11.7734 17.1462L17.6871 1.52432C17.7523 1.35529 17.7671 1.171 17.7297 0.993735C17.6923 0.816475 17.6044 0.653836 17.4766 0.525489Z" fill="#121212"/>
</svg>
