<svg width="16" height="18" viewBox="0 0 16 18" fill="none" xmlns="http://www.w3.org/2000/svg">
<path d="M13 17.3333C12.3056 17.3333 11.7153 17.0903 11.2292 16.6042C10.7431 16.118 10.5 15.5278 10.5 14.8333C10.5 14.7361 10.5069 14.6353 10.5208 14.5308C10.5347 14.4264 10.5556 14.3328 10.5833 14.25L4.70833 10.8333C4.47222 11.0417 4.20833 11.205 3.91667 11.3233C3.625 11.4417 3.31944 11.5005 3 11.5C2.30556 11.5 1.71528 11.2569 1.22917 10.7708C0.743056 10.2847 0.5 9.69443 0.5 8.99999C0.5 8.30555 0.743056 7.71527 1.22917 7.22916C1.71528 6.74305 2.30556 6.49999 3 6.49999C3.31944 6.49999 3.625 6.55916 3.91667 6.67749C4.20833 6.79582 4.47222 6.95888 4.70833 7.16666L10.5833 3.74999C10.5556 3.66666 10.5347 3.57305 10.5208 3.46916C10.5069 3.36527 10.5 3.26443 10.5 3.16666C10.5 2.47221 10.7431 1.88193 11.2292 1.39582C11.7153 0.909712 12.3056 0.666656 13 0.666656C13.6944 0.666656 14.2847 0.909712 14.7708 1.39582C15.2569 1.88193 15.5 2.47221 15.5 3.16666C15.5 3.8611 15.2569 4.45138 14.7708 4.93749C14.2847 5.4236 13.6944 5.66666 13 5.66666C12.6806 5.66666 12.375 5.60777 12.0833 5.48999C11.7917 5.37221 11.5278 5.20888 11.2917 4.99999L5.41667 8.41666C5.44444 8.49999 5.46528 8.59388 5.47917 8.69832C5.49306 8.80277 5.5 8.90332 5.5 8.99999C5.5 9.09721 5.49306 9.19804 5.47917 9.30249C5.46528 9.40693 5.44444 9.50054 5.41667 9.58332L11.2917 13C11.5278 12.7917 11.7917 12.6286 12.0833 12.5108C12.375 12.393 12.6806 12.3339 13 12.3333C13.6944 12.3333 14.2847 12.5764 14.7708 13.0625C15.2569 13.5486 15.5 14.1389 15.5 14.8333C15.5 15.5278 15.2569 16.118 14.7708 16.6042C14.2847 17.0903 13.6944 17.3333 13 17.3333Z" fill="#121212"/>
</svg>
