<svg width="14" height="15" viewBox="0 0 14 15" fill="none" xmlns="http://www.w3.org/2000/svg">
<path d="M6.99999 0.833374C7.88405 0.833374 8.7319 1.18456 9.35702 1.80968C9.98214 2.43481 10.3333 3.28265 10.3333 4.16671C10.3333 5.05076 9.98214 5.89861 9.35702 6.52373C8.7319 7.14885 7.88405 7.50004 6.99999 7.50004C6.11594 7.50004 5.26809 7.14885 4.64297 6.52373C4.01785 5.89861 3.66666 5.05076 3.66666 4.16671C3.66666 3.28265 4.01785 2.43481 4.64297 1.80968C5.26809 1.18456 6.11594 0.833374 6.99999 0.833374ZM6.99999 9.16671C10.6833 9.16671 13.6667 10.6584 13.6667 12.5V14.1667H0.333328V12.5C0.333328 10.6584 3.31666 9.16671 6.99999 9.16671Z" fill="#666666"/>
</svg>
